# xmcd
#
# Track frame offsets:
# 150
# 19863
# 41749
# 55433
# 72858
# 87211
# 108732
# 139486
#
# Disc length: 2049 seconds
#
# Revision: 1
# Processed by: cddbd v1.5.1PL0 Copyright (c) Steve Scherf et al.
# Submitted via: Easy CD Ripper v2.21
#
DISCID=7507ff08
DTITLE=P.J. Ellis and The Witchdoctors - Command Performance
DYEAR=2004
DGENRE=Blues
TTITLE0=See See Rider
TTITLE1=Old Woman
TTITLE2=Mind Your Own Business - PJ Ellis and The Witchdoctors
TTITLE3=Evil
TTITLE4=Born Under A Bad Sign
TTITLE5=Ain't The Kinda Woman (Any Ol' Man Can Hold)
TTITLE6=Summertime
TTITLE7=Key To The Highway
EXTD=
EXTT0=
EXTT1=
EXTT2=
EXTT3=
EXTT4=
EXTT5=
EXTT6=
EXTT7=
PLAYORDER=
